<?xml version="1.0" encoding="UTF-8"?>
<svg width="600px" height="600px" viewBox="0 0 600 600" version="1.1" xmlns="http://www.w3.org/2000/svg" xmlns:xlink="http://www.w3.org/1999/xlink">
    <title>1</title>
    <g id="1" stroke="none" stroke-width="1" fill="none" fill-rule="evenodd">
        <g id="Group-2" transform="translate(0.000000, 14.000000)">
            <path d="M20.3285289,609.941167 C20.6932954,609.527824 24.6991476,604.990105 28.402368,601.147074 C30.859242,598.597624 37.1743073,592.209669 44.441859,586.378369 C60.470385,573.517979 77.0471572,566.987466 95.1180831,566.412708 C102.51429,566.178883 110.404649,565.776854 117.999687,564.435753 C137.078655,561.067915 152.722677,551.868023 164.498275,537.092529 C174.148139,524.983398 180.830895,510.235058 184.928852,492.00423 C186.136456,486.63002 187.115989,481.073276 188.026809,475.588188 C177.871827,484.148455 166.382049,488.287163 157.080138,490.974645 C141.429536,495.498032 124.189752,497.604722 102.827156,497.604722 L102.139289,497.604722 C91.1743654,497.604722 81.4492087,501.354978 72.4082633,509.071211 C63.7774061,516.435953 56.0354387,526.08841 48.044933,539.447376 C48.044933,539.447376 32.2283955,565.96316 16.6391974,609.976617 L20.3285289,609.941167 M6.43523909,610 C14.7715054,585.430999 24.1099657,560.599511 39.8738716,534.243632 C48.4308983,519.936543 56.8249132,509.511708 66.2883737,501.435685 C77.1209877,492.19129 88.8556495,487.696565 102.159026,487.696565 L102.244553,487.696565 L102.827887,487.696565 C123.290628,487.696565 139.706581,485.706788 154.490223,481.434574 C164.683216,478.48913 177.63864,473.680626 187.43251,462.554315 C188.138651,461.751767 188.817745,460.901699 189.535582,460.001849 C189.888653,459.560598 190.241724,459.119347 190.597718,458.682622 L192.657662,456.158817 L200.609425,458.730895 L199.855038,463.032526 C199.300213,466.195201 198.771703,469.436321 198.260738,472.570334 C197.09407,479.720861 195.8967,487.061466 194.283395,494.242164 C189.843331,513.995119 182.526803,530.070228 171.914949,543.385446 C158.63204,560.052661 141.037723,570.420926 119.61884,574.202861 C111.449972,575.645035 103.158296,576.0712 95.4134051,576.317094 C79.4477446,576.823967 64.7035767,582.67337 50.3366021,594.200955 C43.5873259,599.61665 38.9623209,604.186048 33.4674319,609.964549" id="Fill-3" fill="#FF0000"></path>
            <path d="M5.23414131,443.905921 C7.75168788,436.104454 10.1720121,428.263765 12.8035939,420.508309 C22.0981945,393.116811 32.4849016,366.274425 47.1881338,341.691093 C54.2809777,329.832381 62.3021852,318.844102 72.6377226,310.02361 C82.3548384,301.731865 93.101195,297.367629 105.605594,297.390258 C123.685292,297.423446 141.697739,296.010689 159.281822,290.929138 C172.468239,287.117786 184.865914,281.581407 194.567678,270.560694 C195.708031,269.26485 196.764318,267.881509 197.86008,266.5389 C198.14663,266.631676 198.433911,266.724452 198.721192,266.817227 C196.904669,277.174178 195.482153,287.635973 193.183174,297.863942 C189.268696,315.280907 182.65173,331.391468 171.732859,345.092874 C158.593225,361.579818 141.73575,370.796304 122.217454,374.242587 C114.449902,375.613859 106.500332,376.043042 98.6172828,376.293461 C80.6516202,376.863693 64.9147611,383.798497 50.626003,395.262724 C37.491486,405.801455 26.3898658,418.639216 15.672749,431.911439 C12.362073,436.010924 9.12230339,440.178294 5.85037004,444.314738 C5.64496046,444.178214 5.43955088,444.042445 5.23414131,443.905921 Z" id="Stroke-19" stroke="#000000"></path>
            <path d="M5.23414131,539.897452 C7.75168788,532.095985 10.1720121,524.255296 12.8035939,516.49984 C22.0981945,489.108342 32.4849016,462.265956 47.1881338,437.682624 C54.2809777,425.823912 62.3021852,414.835633 72.6377226,406.015141 C82.3548384,397.723395 93.101195,393.35916 105.605594,393.381788 C123.685292,393.414976 141.697739,392.002219 159.281822,386.920668 C172.468239,383.109316 184.865914,377.572938 194.567678,366.552225 C195.708031,365.25638 196.764318,363.87304 197.86008,362.53043 C198.14663,362.623206 198.433911,362.715982 198.721192,362.808758 C196.904669,373.165709 195.482153,383.627503 193.183174,393.855473 C189.268696,411.272438 182.65173,427.382998 171.732859,441.084404 C158.593225,457.571348 141.73575,466.787835 122.217454,470.234118 C114.449902,471.60539 106.500332,472.034572 98.6172828,472.284991 C80.6516202,472.855223 64.9147611,479.790028 50.626003,491.254254 C37.491486,501.792985 26.3898658,514.630746 15.672749,527.90297 C12.362073,532.002455 9.12230339,536.169824 5.85037004,540.306269 C5.64496046,540.169745 5.43955088,540.033975 5.23414131,539.897452" id="Fill-21" fill="#FF0000"></path>
            <path d="M5.23414131,443.905921 C7.75168788,436.104454 10.1720121,428.263765 12.8035939,420.508309 C22.0981945,393.116811 32.4849016,366.274425 47.1881338,341.691093 C54.2809777,329.832381 62.3021852,318.844102 72.6377226,310.02361 C82.3548384,301.731865 93.101195,297.367629 105.605594,297.390258 C123.685292,297.423446 141.697739,296.010689 159.281822,290.929138 C172.468239,287.117786 184.865914,281.581407 194.567678,270.560694 C195.708031,269.26485 196.764318,267.881509 197.86008,266.5389 C198.14663,266.631676 198.433911,266.724452 198.721192,266.817227 C196.904669,277.174178 195.482153,287.635973 193.183174,297.863942 C189.268696,315.280907 182.65173,331.391468 171.732859,345.092874 C158.593225,361.579818 141.73575,370.796304 122.217454,374.242587 C114.449902,375.613859 106.500332,376.043042 98.6172828,376.293461 C80.6516202,376.863693 64.9147611,383.798497 50.626003,395.262724 C37.491486,405.801455 26.3898658,418.639216 15.672749,431.911439 C12.362073,436.010924 9.12230339,440.178294 5.85037004,444.314738 C5.64496046,444.178214 5.43955088,444.042445 5.23414131,443.905921" id="Leaf" fill="#FF0000"></path>
            <path d="M439.576768,589.308006 C439.245729,466.075556 439.280075,418.740599 439.858114,412.354399 C439.898307,411.913166 440.010845,410.36847 440,408.131377 C439.926807,394.58814 433.159147,381.690536 421.412022,373.642734 C413.980093,368.551575 405.565278,365.183113 396.707617,362.67072 C374.615714,356.405955 351.840541,354.800919 328.926521,354.852962 C314.215394,354.886149 301.189421,350.804925 289.376527,342.993201 C273.858629,332.731687 262.39212,319.076067 252.34915,304.313968 C235.872482,280.094382 223.904664,253.890374 213.254425,227.125208 C212.157539,224.368439 210.91523,220.898909 209.637845,217.27702 C208.75069,214.762365 204.745341,210.215771 204.745341,212.861665 L204.745341,589.308006 L439.576768,589.308006 Z" id="Fill-65" fill="#FF0000"></path>
            <path d="M205.627672,106.11635 C205.627672,164.722757 159.59648,212.2327 102.814201,212.2327 C46.0319231,212.2327 0,164.722757 0,106.11635 C0,47.5099429 46.0319231,0 102.814201,0 C159.59648,0 205.627672,47.5099429 205.627672,106.11635" id="Fill-43" fill="#FF0000"></path>
        </g>
    </g>
</svg>