<svg xmlns="http://www.w3.org/2000/svg" width="600" height="600" fill="none" fill-rule="evenodd" xmlns:v="https://vecta.io/nano"><path d="M20.329 623.941c.365-.413 4.371-4.951 8.074-8.794 2.457-2.549 8.772-8.937 16.039-14.769 16.029-12.86 32.605-19.391 50.676-19.966 7.396-.234 15.287-.636 22.882-1.977 19.079-3.368 34.723-12.568 46.499-27.343 9.65-12.109 16.333-26.857 20.431-45.088 1.208-5.374 2.187-10.931 3.098-16.416-10.155 8.56-21.645 12.699-30.947 15.386-15.651 4.523-32.89 6.63-54.253 6.63h-.688c-10.965 0-20.69 3.75-29.731 11.466-8.631 7.365-16.373 17.017-24.363 30.376 0 0-15.817 26.516-31.406 70.529l3.689-.035M6.435 624c8.336-24.569 17.675-49.4 33.439-75.756 8.557-14.307 16.951-24.732 26.415-32.808 10.833-9.244 22.567-13.739 35.871-13.739h.086.583c20.463 0 36.879-1.99 51.662-6.262 10.193-2.945 23.148-7.754 32.942-18.88.706-.803 1.385-1.653 2.103-2.552l1.062-1.319 2.06-2.524 7.952 2.572-.754 4.302-1.594 9.538c-1.167 7.151-2.364 14.491-3.977 21.672-4.44 19.753-11.757 35.828-22.368 49.143-13.283 16.667-30.877 27.035-52.296 30.817-8.169 1.442-16.461 1.868-24.205 2.114-15.966.507-30.71 6.356-45.077 17.884-6.749 5.416-11.374 9.985-16.869 15.764" fill="red"/><path d="M5.234 457.906l7.569-23.398c9.295-27.391 19.681-54.234 34.385-78.817 7.093-11.859 15.114-22.847 25.45-31.667 9.717-8.292 20.463-12.656 32.968-12.633 18.08.033 36.092-1.38 53.676-6.461 13.186-3.811 25.584-9.348 35.286-20.368 1.14-1.296 2.197-2.679 3.292-4.022l.861.278c-1.817 10.357-3.239 20.819-5.538 31.047-3.914 17.417-10.531 33.528-21.45 47.229-13.14 16.487-29.997 25.703-49.515 29.15-7.768 1.371-15.717 1.8-23.6 2.051-17.966.57-33.703 7.505-47.991 18.969-13.135 10.539-24.236 23.376-34.953 36.649L5.85 458.315l-.616-.409z" stroke="#000"/><g fill="red"><path d="M5.234 553.897l7.569-23.398c9.295-27.391 19.681-54.234 34.385-78.817 7.093-11.859 15.114-22.847 25.45-31.667 9.717-8.292 20.463-12.656 32.968-12.633 18.08.033 36.092-1.38 53.676-6.461 13.186-3.811 25.584-9.348 35.286-20.368 1.14-1.296 2.197-2.679 3.292-4.022l.861.278c-1.817 10.357-3.239 20.819-5.538 31.047-3.914 17.417-10.531 33.528-21.45 47.229-13.14 16.487-29.997 25.703-49.515 29.15-7.768 1.371-15.717 1.8-23.6 2.051-17.966.57-33.703 7.505-47.991 18.969-13.135 10.539-24.236 23.376-34.953 36.649L5.85 554.306l-.616-.409m0-95.991l7.569-23.398c9.295-27.391 19.681-54.234 34.385-78.817 7.093-11.859 15.114-22.847 25.45-31.667 9.717-8.292 20.463-12.656 32.968-12.633 18.08.033 36.092-1.38 53.676-6.461 13.186-3.811 25.584-9.348 35.286-20.368 1.14-1.296 2.197-2.679 3.292-4.022l.861.278c-1.817 10.357-3.239 20.819-5.538 31.047-3.914 17.417-10.531 33.528-21.45 47.229-13.14 16.487-29.997 25.703-49.515 29.15-7.768 1.371-15.717 1.8-23.6 2.051-17.966.57-33.703 7.505-47.991 18.969-13.135 10.539-24.236 23.376-34.953 36.649L5.85 458.315l-.616-.409m434.343 145.402l.281-176.954c.04-.441.153-1.986.142-4.223-.073-13.543-6.841-26.441-18.588-34.489-7.432-5.091-15.847-8.46-24.704-10.972-22.092-6.265-44.867-7.87-67.781-7.818-14.711.033-27.737-4.048-39.55-11.86-15.518-10.262-26.984-23.917-37.027-38.679-16.477-24.22-28.444-50.424-39.095-77.189-1.097-2.757-2.339-6.226-3.617-9.848-.887-2.515-4.893-7.061-4.893-4.415v376.446h234.831z"/><path d="M205.628 120.116c0 58.606-46.031 106.116-102.813 106.116S0 178.723 0 120.116 46.032 14 102.814 14s102.813 47.51 102.813 106.116"/></g></svg>